<svg width="155" height="50">
 <g font-family="Arial" font-weight="bold" font-size="66.5">
  <text fill="#DD0000" x="0" y="0"  transform="matrix(0.65,0,0,0.060,-1.5,49)">U</text>
  <text fill="#0000EE" x="0" y="0"  transform="matrix(0.59,0,0,0.072,0,46)">C</text>
  <text fill="#00BB00" x="0" y="0"  transform="matrix(0.53,0,0,0.092,2,42.4)">A</text>
  <text fill="#F9A500" x="0" y="0"  transform="matrix(0.55,0,0,0.776,0,37.8)">G</text>
  
  <text fill="#0000EE" x="0" y="0"  transform="matrix(0.59,0,0,0.014,25,49)">C</text>
  <text fill="#DD0000" x="0" y="0"  transform="matrix(0.65,0,0,0.058,23.5,48.3)">U</text>
  <text fill="#00BB00" x="0" y="0"  transform="matrix(0.53,0,0,0.062,27,45.4)">A</text>
  <text fill="#F9A500" x="0" y="0"  transform="matrix(0.55,0,0,0.866,25,42.3)">G</text>
  
  <text fill="#0000EE" x="0" y="0"  transform="matrix(0.59,0,0,0.001,50,49)">C</text>
  <text fill="#DD0000" x="0" y="0"  transform="matrix(0.65,0,0,0.001,48.5,48.95)">U</text>
  <text fill="#00BB00" x="0" y="0"  transform="matrix(0.53,0,0,0.033,52,48.9)">A</text>
  <text fill="#F9A500" x="0" y="0"  transform="matrix(0.55,0,0,0.965,50,47.25)">G</text>
  
  <text fill="#00BB00" x="0" y="0"  transform="matrix(0.53,0,0,0.001,77,49)">A</text>
  <text fill="#0000EE" x="0" y="0"  transform="matrix(0.59,0,0,0.001,75,48.95)">C</text>
  <text fill="#DD0000" x="0" y="0"  transform="matrix(0.65,0,0,0.024,73.5,48.9)">U</text>
  <text fill="#F9A500" x="0" y="0"  transform="matrix(0.55,0,0,0.974,75,47.7)">G</text>
  
  <text fill="#0000EE" x="0" y="0"  transform="matrix(0.59,0,0,0.001,100,49)">C</text>
  <text fill="#DD0000" x="0" y="0"  transform="matrix(0.65,0,0,0.048,98.5,48.95)">U</text>
  <text fill="#00BB00" x="0" y="0"  transform="matrix(0.53,0,0,0.114,102,46.55)">A</text>
  <text fill="#F9A500" x="0" y="0"  transform="matrix(0.55,0,0,0.837,100,40.85)">G</text>
  
  <text fill="#0000EE" x="0" y="0"  transform="matrix(0.59,0,0,0.038,125,49)">C</text>
  <text fill="#DD0000" x="0" y="0"  transform="matrix(0.65,0,0,0.057,123.5,47.1)">U</text>
  <text fill="#00BB00" x="0" y="0"  transform="matrix(0.53,0,0,0.109,127,44.25)">A</text>
  <text fill="#F9A500" x="0" y="0"  transform="matrix(0.55,0,0,0.796,125,38.8)">G</text>
  
 </g>
</svg>
